<svg xmlns="http://www.w3.org/2000/svg" width="19" height="21">
    <path fill-rule="evenodd" opacity="0.8" d="M17.941 18.153a.452.452 0 0 1-.391.222H.45a.45.45 0 0 1-.391-.223.426.426 0 0 1 .006-.441l1.544-2.504a7.284 7.284 0 0 0 1.09-3.826V9.187c0-2.769 1.901-5.111 4.5-5.866V1.75c0-.965.807-1.75 1.8-1.75S10.8.785 10.8 1.75v1.571c2.599.755 4.5 3.097 4.5 5.866v2.194a7.29 7.29 0 0 0 1.09 3.827l1.546 2.504a.43.43 0 0 1 .005.441zM8.999 21a3.154 3.154 0 0 1-2.834-1.75h5.669A3.154 3.154 0 0 1 8.999 21z"/>
</svg>
